<?xml version="1.0" encoding="utf-8"?>
<!DOCTYPE svg PUBLIC "-//W3C//DTD SVG 1.1//EN" "http://www.w3.org/Graphics/SVG/1.1/DTD/svg11.dtd">
<svg xmlns="http://www.w3.org/2000/svg" xmlns:xlink="http://www.w3.org/1999/xlink" version="1.1" viewBox="0 0 512 512" enable-background="new 0 0 512 512" width="512px" height="512px">
  <g>
    <g>
      <path d="m389.5,191.4c0-0.3 0-0.6 0-0.9v-43.9c0-74.8-61.5-135.6-137-135.6s-137,60.8-137,135.6v52.5c-27.4,32-44,73.4-44,118.6 0,101 82.8,183.2 184.6,183.2 101.8,0 184.5-82.2 184.5-183.2 0-48.9-19.5-93.4-51.1-126.3zm-137-139.6c52.8,1.42109e-14 95.8,42.5 95.8,94.8v12.5c-27.2-15.6-58.7-24.6-92.3-24.6-36.5,0-70.6,10.6-99.3,28.8v-16.7c0-52.2 43-94.8 95.8-94.8zm3.5,408.4c-79,0-143.3-63.9-143.3-142.4 0-78.5 64.3-142.4 143.3-142.4 79,0 143.3,63.9 143.3,142.4 0,78.5-64.3,142.4-143.3,142.4z" fill="#363636"/>
      <path d="m256,254.2c-26.2,0-47.5,21.1-47.5,47 0,18.6 11,34.8 26.9,42.4v37.6c0,11.3 9.2,20.4 20.6,20.4 11.4,0 20.6-9.1 20.6-20.4v-37.6c15.9-7.6 26.9-23.7 26.9-42.4 0-25.9-21.3-47-47.5-47zm0,40.9c3.5,0 6.3,2.8 6.3,6.2 0,3.4-2.8,6.2-6.3,6.2-3.5,0-6.3-2.8-6.3-6.2 0-3.5 2.8-6.2 6.3-6.2z" fill="#363636"/>
    </g>
  </g>
</svg>
